#!OML:ASF X:\für Bonn\!DataBase\2005_08_11_Bastian_Final\c3d\Bastian.ASF
:FULLY-SPECIFIED
:DEGREES
53
root 1.03035 22.7777 11.2437 540.86 -180.894 -182.631
lowerback 15.3126 -2.3877 -0.85222
upperback 5.81499 -3.2734 -0.494818
thorax -2.39581 -1.62777 0.518095
lowerneck -5.1618 -2.19244 -0.17499
upperneck -5.42221 -2.65424 10.0462
head -0.673367 -1.3864 3.22555
rclavicle 7.55382e-015 8.74653e-015
rhumerus -35.6606 17.975 -92.1849
rradius 53.205
rwrist 5.45242
rhand -17.9196 17.3368
rfingers 7.12502
rthumb 8.34795 -12.4783
lclavicle 7.55382e-015 8.74653e-015
lhumerus -32.9271 -3.44134 86.0124
lradius 84.5236
lwrist -164.933
lhand -27.0766 8.32037
lfingers 7.12502
lthumb -0.494103 38.2995
rfemur -33.5899 -11.6158 26.3634
rtibia 69.6871
rfoot 8.73192 3.48378
rtoes -19.5247
lfemur -23.5829 4.27204 -16.0349
ltibia 48.895
lfoot 13.3083 -8.97462
ltoes -32.3553
54
root 1.03021 22.689 11.4656 541.168 -180.738 -182.608
lowerback 15.3305 -2.33851 -0.752656
upperback 5.79529 -3.19624 -0.527768
thorax -2.43457 -1.58787 0.416262
lowerneck -5.38031 -2.23398 -0.0926294
upperneck -5.30716 -2.73052 10.0259
head -0.596224 -1.4164 3.19742
rclavicle -2.60408e-014 -1.27222e-014
rhumerus -35.3981 16.7243 -92.1325
rradius 49.8595
rwrist 5.32078
rhand -18.2805 17.3757
rfingers 7.12502
rthumb 7.9996 -12.4529
lclavicle -2.60408e-014 -1.27222e-014
lhumerus -32.6276 -2.29108 85.6845
lradius 81.7613
lwrist -166.128
lhand -26.6612 8.14816
lfingers 7.12502
lthumb -0.0928633 38.1279
rfemur -33.8983 -11.6115 26.3046
rtibia 67.9913
rfoot 8.85141 3.32261
rtoes -19.9624
lfemur -23.359 4.04065 -16.1355
ltibia 46.6629
lfoot 13.294 -8.65462
ltoes -31.978
55
root 1.03057 22.5841 11.688 541.489 -180.608 -182.644
lowerback 15.3282 -2.29487 -0.603389
upperback 5.77401 -3.11764 -0.521668
thorax -2.46429 -1.54729 0.326076
lowerneck -5.46932 -2.27557 -0.05904
upperneck -5.4127 -2.78202 10.0301
head -0.612202 -1.44435 3.19195
rclavicle -5.14852e-014 7.95139e-015
rhumerus -35.1974 15.4946 -91.9901
rradius 46.6214
rwrist 5.21782
rhand -18.6958 17.3066
rfingers 7.12502
rthumb 7.59875 -12.5369
lclavicle -5.14852e-014 7.95139e-015
lhumerus -32.2894 -1.05784 85.336
lradius 79.144
lwrist -167.169
lhand -26.3126 7.76098
lfingers 7.12502
lthumb 0.243874 37.7406
rfemur -34.1798 -11.613 26.3049
rtibia 66.2434
rfoot 9.08912 3.25445
rtoes -20.4993
lfemur -23.1921 3.82543 -16.1634
ltibia 44.4871
lfoot 13.3923 -8.28882
ltoes -31.3262
56
root 1.03135 22.4627 11.9119 541.857 -180.475 -182.706
lowerback 15.3057 -2.24737 -0.403408
upperback 5.71283 -3.02713 -0.519066
thorax -2.52772 -1.50018 0.201888
lowerneck -5.40233 -2.32691 -0.0252938
upperneck -5.69736 -2.82679 10.0427
head -0.712563 -1.47942 3.19416
rclavicle 4.25399e-014 -3.18055e-015
rhumerus -35.0419 14.1428 -91.8002
rradius 43.4555
rwrist 5.20454
rhand -19.0706 17.1225
rfingers 7.12502
rthumb 7.23702 -12.7338
lclavicle 4.25399e-014 -3.18055e-015
lhumerus -32.0236 0.227172 84.8911
lradius 76.4011
lwrist -168.049
lhand -26.0976 7.56394
lfingers 7.12502
lthumb 0.451484 37.5432
rfemur -34.4757 -11.5391 26.3142
rtibia 64.4695
rfoot 9.42953 3.16269
rtoes -21.0337
lfemur -23.1041 3.65217 -16.1591
ltibia 42.3767
lfoot 13.5986 -7.88392
ltoes -30.6741
57
root 1.03221 22.3266 12.139 542.222 -180.343 -182.709
lowerback 15.2945 -2.20012 -0.2944
upperback 5.63303 -2.94978 -0.507754
thorax -2.61104 -1.46052 0.140938
lowerneck -5.2621 -2.37116 -0.0281978
upperneck -6.06995 -2.84986 10.0885
head -0.854037 -1.50822 3.21796
rclavicle 2.78299e-014 1.59028e-015
rhumerus -34.9775 12.8461 -91.5185
rradius 40.4278
rwrist 5.18307
rhand -19.4426 16.9825
rfingers 7.12502
rthumb 6.87793 -12.8858
lclavicle 2.78299e-014 1.59028e-015
lhumerus -31.7988 1.63098 84.4119
lradius 73.516
lwrist -169.053
lhand -25.8661 7.69324
lfingers 7.12502
lthumb 0.675072 37.6719
rfemur -34.7306 -11.488 26.2434
rtibia 62.6879
rfoot 9.74681 3.18134
rtoes -21.4363
lfemur -23.0165 3.47626 -16.2171
ltibia 40.3561
lfoot 13.8942 -7.46867
ltoes -30.2581
58
root 1.03207 22.1727 12.3669 542.488 -180.231 -182.656
lowerback 15.3275 -2.14052 -0.201446
upperback 5.5693 -2.85973 -0.532136
thorax -2.70172 -1.4145 0.0507255
lowerneck -5.00745 -2.43016 0.0197777
upperneck -6.58628 -2.87961 10.1156
head -1.06258 -1.54949 3.23107
rclavicle -5.76476e-014 2.22639e-014
rhumerus -35.0606 11.3311 -91.1168
rradius 37.5857
rwrist 5.44383
rhand -19.6536 16.9227
rfingers 7.12502
rthumb 6.6742 -12.9521
lclavicle -5.76476e-014 2.22639e-014
lhumerus -31.6166 2.98361 83.8737
lradius 70.5333
lwrist -170.052
lhand -25.4728 7.9577
lfingers 7.12502
lthumb 1.05489 37.9348
rfemur -34.8592 -11.4337 26.0795
rtibia 60.9263
rfoot 10.0311 3.26156
rtoes -21.7477
lfemur -22.8729 3.34592 -16.3142
ltibia 38.468
lfoot 14.2322 -7.03522
ltoes -29.7987
59
root 1.03098 22.0002 12.597 542.866 -180.11 -182.657
lowerback 15.1279 -2.0835 -0.0831177
upperback 5.49072 -2.76726 -0.499936
thorax -2.68218 -1.36835 -0.0037257
lowerneck -4.65097 -2.48117 -0.03995
upperneck -7.24463 -2.87904 10.1581
head -1.33569 -1.58086 3.2763
rclavicle -2.22639e-014 7.95139e-016
rhumerus -35.2609 9.94118 -90.6142
rradius 35.0072
rwrist 5.77512
rhand -19.5427 16.5474
rfingers 7.12502
rthumb 6.78125 -13.324
lclavicle -2.22639e-014 7.95139e-016
lhumerus -31.4845 4.41752 83.3659
lradius 67.5037
lwrist -171.265
lhand -24.7309 8.39606
lfingers 7.12502
lthumb 1.77146 38.3685
rfemur -35.1123 -11.3218 26.0048
rtibia 59.1906
rfoot 10.3405 3.39076
rtoes -22.3307
lfemur -22.8984 3.27208 -16.3557
ltibia 36.7466
lfoot 14.4797 -6.6382
ltoes -29.6904
60
root 1.02943 21.8183 12.8278 543.25 -180.025 -182.655
lowerback 14.9248 -2.04123 0.0389465
upperback 5.42276 -2.69417 -0.475839
thorax -2.64962 -1.33173 -0.0655169
lowerneck -4.76215 -2.53115 -0.0672269
upperneck -7.334 -2.9403 10.1887
head -1.34101 -1.6115 3.29109
rclavicle 1.2921e-014 5.56597e-015
rhumerus -35.4769 8.6012 -90.1122
rradius 32.5053
rwrist 6.39138
rhand -19.3904 15.9816
rfingers 7.12502
rthumb 6.92827 -13.8851
lclavicle 1.2921e-014 5.56597e-015
lhumerus -31.3007 5.83308 82.7829
lradius 64.4105
lwrist -172.536
lhand -23.7577 8.85819
lfingers 7.12502
lthumb 2.71133 38.8207
rfemur -35.3744 -11.2698 25.9321
rtibia 57.483
rfoot 10.6962 3.49167
rtoes -23.0398
lfemur -22.9828 3.23826 -16.3963
ltibia 35.2045
lfoot 14.6786 -6.33458
ltoes -29.2783
61
root 1.02808 21.6223 13.0595 543.617 -179.97 -182.687
lowerback 14.7583 -1.99653 0.194699
upperback 5.34592 -2.61232 -0.419792
thorax -2.64548 -1.29068 -0.112576
lowerneck -5.00745 -2.59824 -0.141839
upperneck -7.23375 -3.04304 10.2057
head -1.25856 -1.65123 3.30287
rclavicle 8.94531e-015 -7.95139e-016
rhumerus -35.7456 7.2705 -89.5293
rradius 30.069
rwrist 7.24464
rhand -19.3913 15.5959
rfingers 7.12502
rthumb 6.92745 -14.2707
lclavicle 8.94531e-015 -7.95139e-016
lhumerus -31.0996 7.25007 82.2057
lradius 61.2392
lwrist -173.821
lhand -22.6701 9.37878
lfingers 7.12502
lthumb 3.7617 39.3253
rfemur -35.5998 -11.242 25.8914
rtibia 55.8119
rfoot 10.9269 3.70618
rtoes -24.2469
lfemur -23.1255 3.25278 -16.4033
ltibia 33.8267
lfoot 14.9218 -6.06155
ltoes -28.964
62
root 1.02492 21.4171 13.292 543.971 -179.926 -182.749
lowerback 14.6307 -1.96632 0.339998
upperback 5.25888 -2.5503 -0.339433
thorax -2.67086 -1.25968 -0.123321
lowerneck -5.22572 -2.63963 -0.172431
upperneck -7.2764 -3.10271 10.1509
head -1.23127 -1.67551 3.28561
rclavicle 2.68359e-014 -5.56597e-015
rhumerus -36.0398 6.00055 -88.9053
rradius 27.709
rwrist 8.24551
rhand -19.4993 15.4956
rfingers 7.12502
rthumb 6.82317 -14.3744
lclavicle 2.68359e-014 -5.56597e-015
lhumerus -30.9291 8.6555 81.5736
lradius 58.1029
lwrist -175.026
lhand -21.7648 9.7143
lfingers 7.12502
lthumb 4.63588 39.6436
rfemur -35.7666 -11.2312 25.8924
rtibia 54.1728
rfoot 10.9787 3.99417
rtoes -25.7548
lfemur -23.3329 3.30525 -16.3784
ltibia 32.5839
lfoot 15.2137 -5.87329
ltoes -29.1838
63
root 1.02193 21.2034 13.524 544.309 -179.908 -182.78
lowerback 14.5537 -1.94073 0.454159
upperback 5.15107 -2.49822 -0.253038
thorax -2.74341 -1.23385 -0.106328
lowerneck -5.39204 -2.6898 -0.204273
upperneck -7.41543 -3.16586 10.0659
head -1.24447 -1.70587 3.26105
rclavicle -1.31198e-014 1.59028e-015
rhumerus -36.3949 4.76957 -88.2637
rradius 25.5636
rwrist 9.28678
rhand -19.5663 15.1437
rfingers 7.12502
rthumb 6.7585 -14.7284
lclavicle -1.31198e-014 1.59028e-015
lhumerus -30.7938 10.0893 80.9092
lradius 54.9778
lwrist -176.183
lhand -21.0693 9.85787
lfingers 7.12502
lthumb 5.30746 39.7714
rfemur -35.9239 -11.2192 25.8427
rtibia 52.5597
rfoot 10.9842 4.403
rtoes -26.7958
lfemur -23.6022 3.4543 -16.4096
ltibia 31.4777
lfoot 15.6042 -5.8027
ltoes -29.7037
64
root 1.01776 20.9811 13.7582 544.646 -179.929 -182.812
lowerback 14.4831 -1.92832 0.591244
upperback 5.00712 -2.46082 -0.183646
thorax -2.85906 -1.21517 -0.116514
lowerneck -5.53727 -2.73039 -0.192883
upperneck -7.54259 -3.21871 9.96783
head -1.25908 -1.73212 3.22428
rclavicle 2.90226e-014 -1.43125e-014
rhumerus -36.7959 3.55488 -87.6544
rradius 23.5272
rwrist 10.1819
rhand -19.5492 14.6845
rfingers 7.12502
rthumb 6.77503 -15.1871
lclavicle 2.90226e-014 -1.43125e-014
lhumerus -30.8152 11.5838 80.1444
lradius 52.0919
lwrist -177.347
lhand -20.5424 9.61845
lfingers 7.12502
lthumb 5.81616 39.5186
rfemur -36.0915 -11.1961 25.7649
rtibia 50.9669
rfoot 10.9144 4.80079
rtoes -26.9153
lfemur -23.9491 3.64403 -16.4513
ltibia 30.5464
lfoot 15.9924 -5.83006
ltoes -30.9424
65
root 1.01266 20.744 13.9918 544.918 -180.005 -182.883
lowerback 14.4857 -1.94361 0.766849
upperback 4.8767 -2.45245 -0.0889367
thorax -3.00025 -1.21096 -0.114912
lowerneck -5.79019 -2.76817 -0.215322
upperneck -7.60958 -3.2742 9.87015
head -1.235 -1.75407 3.19054
rclavicle -5.82439e-014 1.70955e-014
rhumerus -37.2312 2.36967 -86.9907
rradius 21.5989
rwrist 11.0275
rhand -19.5269 14.4289
rfingers 7.12502
rthumb 6.79655 -15.442
lclavicle -5.82439e-014 1.70955e-014
lhumerus -30.8815 13.1128 79.3386
lradius 49.3872
lwrist -178.468
lhand -20.1305 9.08029
lfingers 7.12502
lthumb 6.21379 38.9692
rfemur -36.1693 -11.1162 25.6731
rtibia 49.4004
rfoot 10.769 5.12293
rtoes -26.4342
lfemur -24.3016 3.79193 -16.4401
ltibia 29.8261
lfoot 16.3596 -5.83344
ltoes -32.6654
66
root 1.00616 20.4926 14.2249 545.21 -180.114 -182.95
lowerback 14.4239 -1.97612 0.969196
upperback 4.73289 -2.4645 -0.0228182
thorax -3.12352 -1.21699 -0.156634
lowerneck -6.11402 -2.79851 -0.209143
upperneck -7.55347 -3.33168 9.78826
head -1.15926 -1.77211 3.15301
rclavicle 3.53837e-014 -1.15295e-014
rhumerus -37.8365 1.32566 -86.4013
rradius 19.9837
rwrist 11.6776
rhand -19.4877 14.3527
rfingers 7.12502
rthumb 6.83434 -15.5169
lclavicle 3.53837e-014 -1.15295e-014
lhumerus -31.0399 14.5836 78.4048
lradius 46.7677
lwrist -179.59
lhand -19.934 8.50039
lfingers 7.12502
lthumb 6.40355 38.3836
rfemur -36.2749 -11.0402 25.5775
rtibia 47.9125
rfoot 10.6518 5.4357
rtoes -25.8174
lfemur -24.792 4.04459 -16.4664
ltibia 29.3852
lfoot 16.6463 -6.06928
ltoes -34.7355
67
root 0.998758 20.2274 14.4592 545.456 -180.225 -183.055
lowerback 14.3389 -2.01766 1.19392
upperback 4.60107 -2.48461 0.0686367
thorax -3.22157 -1.22741 -0.184159
lowerneck -6.52318 -2.8158 -0.182638
upperneck -7.37784 -3.3865 9.63859
head -1.03239 -1.7828 3.08482
rclavicle 1.33186e-014 0
rhumerus -38.5599 0.383786 -85.7841
rradius 18.5879
rwrist 12.2823
rhand -19.4075 14.3843
rfingers 7.12502
rthumb 6.91177 -15.4829
lclavicle 1.33186e-014 0
lhumerus -31.2971 16.211 77.3892
lradius 44.2925
lwrist -180.958
lhand -20.0257 7.90438
lfingers 7.12502
lthumb 6.315 37.7903
rfemur -36.3199 -10.8889 25.4886
rtibia 46.5818
rfoot 10.5434 5.67696
rtoes -25.4749
lfemur -25.3134 4.30331 -16.4485
ltibia 29.2126
lfoot 16.972 -6.33298
ltoes -35.8658
